<svg width="16" height="16" viewBox="0 0 16 16" fill="none" xmlns="http://www.w3.org/2000/svg">
<path d="M12.9744 9.53196C13.0991 9.23496 12.7428 8.98196 12.444 9.11396C11.8466 9.37588 11.2012 9.51073 10.5489 9.50996C7.99139 9.50996 5.91848 7.47863 5.91848 4.97247C5.91822 4.12639 6.15857 3.29768 6.61149 2.58303C6.78505 2.30926 6.57666 1.93037 6.25888 2.01104C3.80891 2.6362 2 4.81908 2 7.41569C2 10.5 4.55141 13 7.69928 13C10.0826 13 12.1238 11.5669 12.9744 9.53196Z" fill="white"/>
<path d="M9.27428 2.06853C8.92095 1.83253 8.49962 2.25386 8.73495 2.6072L9.15495 3.2372C9.3255 3.49257 9.41652 3.79277 9.41652 4.09986C9.41652 4.40695 9.3255 4.70715 9.15495 4.96253L8.73495 5.59253C8.49962 5.94586 8.92162 6.3672 9.27495 6.1312L9.90428 5.7112C10.1597 5.54065 10.4599 5.44962 10.7669 5.44962C11.074 5.44962 11.3742 5.54065 11.6296 5.7112L12.2596 6.1312C12.613 6.3672 13.0343 5.94586 12.7983 5.59253L12.3783 4.96253C12.2077 4.70715 12.1167 4.40695 12.1167 4.09986C12.1167 3.79277 12.2077 3.49257 12.3783 3.2372L12.7983 2.6072C13.0343 2.25386 12.6129 1.83253 12.2589 2.06853L11.6296 2.48853C11.3742 2.65908 11.074 2.7501 10.7669 2.7501C10.4599 2.7501 10.1597 2.65908 9.90428 2.48853L9.27428 2.06853Z" fill="white"/>
</svg>
