<svg aria-hidden="true" style="position: absolute; width: 0; height: 0; overflow: hidden;" version="1.1" xmlns="http://www.w3.org/2000/svg" xmlns:xlink="http://www.w3.org/1999/xlink">
<defs>
<symbol id="icon-akar-logo" viewBox="0 0 32 32">
<path d="M25.949 19.064c0.249-0.594-0.463-1.1-1.061-0.836-1.195 0.524-2.486 0.794-3.79 0.792-5.115 0-9.261-4.063-9.261-9.075-0.001-1.692 0.48-3.35 1.386-4.779 0.347-0.548-0.070-1.305-0.705-1.144-4.9 1.25-8.518 5.616-8.518 10.809 0 6.168 5.103 11.169 11.399 11.169 4.767 0 8.849-2.866 10.55-6.936z"></path>
<path d="M18.548 4.137c-0.707-0.472-1.549 0.371-1.079 1.077l0.84 1.26c0.341 0.511 0.523 1.111 0.523 1.725s-0.182 1.215-0.523 1.725l-0.84 1.26c-0.471 0.707 0.373 1.549 1.080 1.077l1.259-0.84c0.511-0.341 1.111-0.523 1.725-0.523s1.215 0.182 1.725 0.523l1.26 0.84c0.707 0.472 1.549-0.371 1.077-1.077l-0.84-1.26c-0.341-0.511-0.523-1.111-0.523-1.725s0.182-1.215 0.523-1.725l0.84-1.26c0.472-0.707-0.371-1.549-1.079-1.077l-1.259 0.84c-0.511 0.341-1.111 0.523-1.725 0.523s-1.215-0.182-1.725-0.523l-1.26-0.84z"></path>
</symbol>
<symbol id="icon-Check-mark" viewBox="0 0 38 32">
<path stroke-linejoin="miter" stroke-linecap="round" stroke-miterlimit="4" stroke-width="5.12" d="M3.159 16.98l12.8 11.018 19.443-25.114"></path>
</symbol>
<symbol id="icon-Sun-Icon" viewBox="0 0 32 32">
<path d="M15 5v-3c0-0.552 0.448-1 1-1s1 0.448 1 1v3c0 0.552-0.448 1-1 1s-1-0.448-1-1zM24 16c0 4.418-3.582 8-8 8s-8-3.582-8-8c0-4.418 3.582-8 8-8 4.416 0.005 7.995 3.584 8 8zM22 16c0-3.314-2.686-6-6-6s-6 2.686-6 6c0 3.314 2.686 6 6 6 3.312-0.003 5.997-2.688 6-6zM7.293 8.707c0.391 0.391 1.024 0.391 1.415 0s0.391-1.024 0-1.415l-2-2c-0.391-0.391-1.024-0.391-1.415 0s-0.391 1.024 0 1.415l2 2zM7.293 23.293l-2 2c-0.253 0.253-0.351 0.621-0.259 0.966s0.362 0.615 0.708 0.707c0.345 0.093 0.714-0.006 0.966-0.259l2-2c0.253-0.253 0.351-0.621 0.259-0.966s-0.362-0.615-0.707-0.707c-0.345-0.093-0.714 0.006-0.966 0.259zM24 9c0.265 0 0.52-0.105 0.707-0.293l2-2c0.253-0.253 0.351-0.621 0.259-0.966s-0.362-0.615-0.707-0.708c-0.345-0.093-0.714 0.006-0.966 0.259l-2 2c-0.286 0.286-0.372 0.716-0.217 1.090s0.52 0.618 0.925 0.617zM24.707 23.293c-0.391-0.391-1.024-0.391-1.415 0s-0.391 1.024 0 1.415l2 2c0.391 0.391 1.024 0.391 1.415 0s0.391-1.024 0-1.415l-2-2zM6 16c0-0.552-0.448-1-1-1h-3c-0.552 0-1 0.448-1 1s0.448 1 1 1h3c0.552 0 1-0.448 1-1zM16 26c-0.552 0-1 0.448-1 1v3c0 0.552 0.448 1 1 1s1-0.448 1-1v-3c0-0.552-0.448-1-1-1zM30 15h-3c-0.552 0-1 0.448-1 1s0.448 1 1 1h3c0.552 0 1-0.448 1-1s-0.448-1-1-1z"></path>
</symbol>
<symbol id="icon-Star-Icon-1" viewBox="0 0 34 32">
<path d="M32.648 12.375c-0.283-0.872-1.060-1.491-1.973-1.571l-8.484-0.731-3.326-7.909c-0.354-0.849-1.183-1.401-2.103-1.401s-1.749 0.553-2.103 1.401l-3.316 7.909-8.494 0.736c-0.917 0.077-1.698 0.697-1.983 1.572s-0.016 1.836 0.681 2.437l6.444 5.631-1.931 8.363c-0.209 0.895 0.138 1.828 0.881 2.368s1.737 0.583 2.524 0.109l7.286-4.429 7.302 4.429c0.787 0.474 1.781 0.431 2.524-0.109s1.090-1.473 0.881-2.368l-1.93-8.372 6.443-5.623c0.697-0.603 0.963-1.566 0.676-2.441zM30.473 13.089l-6.443 5.623c-0.639 0.556-0.918 1.419-0.726 2.244l1.936 8.377-7.296-4.428c-0.726-0.442-1.637-0.442-2.363 0l-7.286 4.428 1.923-8.371c0.193-0.825-0.087-1.689-0.726-2.244l-6.446-5.62c-0.001-0.004-0.001-0.009 0-0.013l8.491-0.734c0.845-0.074 1.579-0.611 1.907-1.393l3.316-7.899 3.314 7.899c0.328 0.782 1.062 1.318 1.907 1.393l8.493 0.734c0 0 0 0.009 0 0.010l-0.003-0.006z"></path>
</symbol>
<symbol id="icon-Moon-Icon" viewBox="0 0 32 32">
<path d="M30.231 19.735c-0.314-0.314-0.775-0.43-1.2-0.3-4.662 1.409-9.722 0.14-13.166-3.304s-4.714-8.503-3.304-13.166c0.131-0.425 0.016-0.887-0.298-1.202s-0.777-0.429-1.202-0.298c-3.163 0.969-5.941 2.911-7.936 5.55-3.56 4.726-4.139 11.060-1.496 16.354s8.054 8.637 13.972 8.631c3.384 0.010 6.679-1.090 9.378-3.132 2.639-1.996 4.581-4.773 5.55-7.936 0.129-0.423 0.015-0.883-0.297-1.197zM23.535 26.951c-5.255 3.958-12.623 3.442-17.275-1.21s-5.169-12.019-1.211-17.275c1.247-1.647 2.859-2.982 4.71-3.9-0.105 0.74-0.159 1.486-0.159 2.233 0.009 8.612 6.988 15.591 15.6 15.6 0.749-0 1.497-0.053 2.238-0.159-0.919 1.851-2.255 3.463-3.903 4.71z"></path>
</symbol>
<symbol id="icon-Facebook-Icon" viewBox="0 0 32 32">
<path d="M16 0.4c-8.616 0-15.6 6.984-15.6 15.6s6.984 15.6 15.6 15.6c8.616 0 15.6-6.984 15.6-15.6-0.009-8.612-6.988-15.591-15.6-15.6zM17.2 29.144v-9.544h3.6c0.663 0 1.2-0.537 1.2-1.2s-0.537-1.2-1.2-1.2h-3.6v-3.6c0-1.325 1.075-2.4 2.4-2.4h2.4c0.663 0 1.2-0.537 1.2-1.2s-0.537-1.2-1.2-1.2h-2.4c-2.651 0-4.8 2.149-4.8 4.8v3.6h-3.6c-0.663 0-1.2 0.537-1.2 1.2s0.537 1.2 1.2 1.2h3.6v9.544c-7.027-0.641-12.307-6.697-11.986-13.746s6.13-12.599 13.186-12.599c7.057 0 12.865 5.55 13.186 12.599s-4.959 13.105-11.986 13.746z"></path>
</symbol>
<symbol id="icon-IG-Icon" viewBox="0 0 32 32">
<path d="M16 8.8c-3.976 0-7.2 3.224-7.2 7.2s3.224 7.2 7.2 7.2c3.976 0 7.2-3.224 7.2-7.2-0.004-3.975-3.225-7.196-7.2-7.2zM16 20.8c-2.651 0-4.8-2.149-4.8-4.8s2.149-4.8 4.8-4.8c2.651 0 4.8 2.149 4.8 4.8s-2.149 4.8-4.8 4.8zM23.2 0.4h-14.4c-4.637 0.005-8.395 3.763-8.4 8.4v14.4c0.005 4.637 3.763 8.395 8.4 8.4h14.4c4.637-0.005 8.395-3.763 8.4-8.4v-14.4c-0.005-4.637-3.763-8.395-8.4-8.4zM29.2 23.2c0 3.314-2.686 6-6 6h-14.4c-3.314 0-6-2.686-6-6v-14.4c0-3.314 2.686-6 6-6h14.4c3.314 0 6 2.686 6 6v14.4zM25.6 8.2c0 0.994-0.806 1.8-1.8 1.8s-1.8-0.806-1.8-1.8c0-0.994 0.806-1.8 1.8-1.8s1.8 0.806 1.8 1.8z"></path>
</symbol>
<symbol id="icon-Twitter" viewBox="0 0 35 32">
<path d="M34.009 5.833c-0.195-0.472-0.656-0.78-1.167-0.78h-4.805c-1.366-2.325-3.851-3.763-6.548-3.789-1.995-0.026-3.917 0.754-5.329 2.163-1.454 1.427-2.271 3.379-2.266 5.416v0.962c-6.357-1.677-11.556-6.848-11.612-6.903-0.346-0.349-0.863-0.466-1.325-0.299s-0.786 0.586-0.83 1.076c-0.681 7.546 1.511 12.595 3.474 15.502 0.957 1.437 2.121 2.725 3.455 3.821-2.405 2.768-6.191 4.222-6.232 4.238-0.361 0.135-0.641 0.428-0.759 0.795s-0.063 0.768 0.151 1.089c0.118 0.177 0.592 0.797 1.749 1.377 1.431 0.717 3.321 1.080 5.613 1.080 11.158 0 20.482-8.593 21.434-19.648l4.723-4.721c0.361-0.361 0.469-0.905 0.273-1.377zM26.904 10.476c-0.217 0.217-0.347 0.506-0.366 0.812-0.643 9.962-8.967 17.765-18.958 17.765-1.667 0-2.842-0.221-3.666-0.486 1.817-0.987 4.352-2.684 5.981-5.128 0.193-0.291 0.258-0.648 0.178-0.988s-0.296-0.631-0.598-0.806c-0.074-0.043-6.933-4.159-6.947-15.158 2.526 2.053 7.145 5.237 12.422 6.125 0.366 0.062 0.741-0.041 1.024-0.28s0.448-0.591 0.449-0.963v-2.526c-0.003-1.361 0.544-2.666 1.516-3.619 0.932-0.934 2.202-1.451 3.521-1.434 1.999 0.025 3.867 1.244 4.648 3.033 0.201 0.46 0.656 0.756 1.157 0.756h2.526l-2.886 2.897z"></path>
</symbol>
<symbol id="icon-Logo-Vector" viewBox="0 0 32 32">
<path d="M0.762 0.762h10.159v10.159h10.159v10.159h10.159v10.159h-30.476v-30.476z"></path>
</symbol>
<symbol id="icon-Star-Icon" viewBox="0 0 39 32">
<path d="M8.826 31.878c-0.944 0.422-2.014-0.318-1.824-1.263l2.029-10.090-8.612-7.159c-0.804-0.67-0.386-1.894 0.692-2.027l11.973-1.485 5.339-9.231c0.481-0.832 1.784-0.832 2.266 0l5.339 9.231 11.973 1.485c1.078 0.132 1.496 1.357 0.689 2.027l-8.609 7.159 2.029 10.090c0.191 0.945-0.88 1.685-1.824 1.263l-10.733-4.813-10.726 4.813z"></path>
</symbol>
</defs>
</svg>
